<?xml version="1.0" encoding="UTF-8"?><svg id="Layer_1" xmlns="http://www.w3.org/2000/svg" xmlns:xlink="http://www.w3.org/1999/xlink" viewBox="0 0 513.8 500.2"><defs><style>.cls-1{fill:url(#linear-gradient);}.cls-1,.cls-2,.cls-3{stroke-width:0px;}.cls-2{fill:url(#linear-gradient-2);}.cls-3{fill:url(#linear-gradient-3);}</style><linearGradient id="linear-gradient" x1="383.01" y1="473.53" x2="389.48" y2="896.02" gradientTransform="translate(0 -403.25)" gradientUnits="userSpaceOnUse"><stop offset="0" stop-color="#466a44"/><stop offset="1" stop-color="#69e781"/></linearGradient><linearGradient id="linear-gradient-2" x1="123.37" y1="478.23" x2="129.83" y2="900.64" gradientTransform="translate(0 -403.25)" gradientUnits="userSpaceOnUse"><stop offset="0" stop-color="#466a44"/><stop offset="1" stop-color="#69e781"/></linearGradient><linearGradient id="linear-gradient-3" x1="255.38" y1="394.16" x2="262.44" y2="855.5" gradientTransform="translate(0 -403.25)" gradientUnits="userSpaceOnUse"><stop offset="0" stop-color="#466a44"/><stop offset="1" stop-color="#69e781"/></linearGradient></defs><path class="cls-1" d="m492.45,129.22c-.97-.11-1.83-.11-2.69-.11-11.64,0-21.99,9.16-24.57,21.66-3.45-1.83-7.11-2.8-10.99-2.8h-.43c-11.32.22-21.02,9.05-23.39,21.23-6.47.32-12.5,3.34-16.81,8.51-4.42,5.17-6.68,11.96-6.57,19.08l1.29,61.11c-2.05.32-4.31.86-6.57,1.72-.65.22-64.56,24.14-82.13,39.45-11.86,10.24-29.96,37.29-35.35,52.7-3.77,10.78-2.69,44.84-.97,72l-.97-.11c-.75-.11-1.4-.11-2.16-.11-8.62,0-15.84,6.47-16.92,14.98l-3.45,27.7c-.54,4.53.65,8.95,3.45,12.61,2.8,3.56,6.79,5.82,11.32,6.47l119.63,14.77c.75.11,1.4.11,2.16.11,8.62,0,15.84-6.47,16.92-14.98l3.45-27.7c.54-4.53-.65-8.95-3.45-12.5-2.8-3.56-6.79-5.82-11.32-6.47l-7.87-.97,2.05-9.81,70.06-84.82.75-1.19,32.98-73.18c.32-.54.43-1.08.43-1.72l13.26-107.45c1.83-14.98-7.65-28.45-21.12-30.18h0Zm-106.81,294.77l-2.48,11.96-89.24-10.99c-2.16-37.29-2.05-62.73.32-69.84,4.74-13.69,21.56-38.8,32.12-48.07,9.16-7.98,37.4-21.45,77.28-36.97,1.08-.43,1.4-.54,1.62-.65,2.59-.97,5.39-1.29,7.98-1.08h0c5.82.43,10.56,3.56,12.29,8.3,1.29,3.34.97,7.11-.97,10.67-1.94,3.66-5.28,6.47-9.38,7.98h-.22c-.11,0-.22.11-.43.22l-50.33,26.94c-1.29.65-2.26,1.83-2.59,3.23-.43,1.4-.22,2.8.43,3.99.97,1.72,2.8,2.8,4.74,2.8.75,0,1.72-.22,2.59-.65l50.01-26.84c6.25-2.48,11.42-6.9,14.55-12.61h0c.11-.11.11-.22.11-.32l30.61-54.97c.43-.65.54-1.19.65-2.05l9.05-73.61.97-7.54c.97-8.19,7.33-14.55,14.33-14.55.43,0,.97,0,1.29.11h.11c7.54.86,12.83,8.95,11.75,17.89l-13.15,106.81-32.33,71.78-70.7,85.58c-.43.86-.86,1.72-.97,2.48h0Zm31.9-227.41c-.11-4.53,1.29-8.62,4.1-11.86,2.26-2.59,5.07-4.2,8.19-4.63l1.62,76.2-2.69,7.11c-2.69-2.26-6.14-3.99-9.81-4.96,0,0-1.4-61.86-1.4-61.86Zm23.06-21.34v-.22c0-8.84,6.04-16.17,13.47-16.27h.43l.11-.11c3.23.11,6.47,1.72,8.84,4.31l-8.62,70.27-12.61,22.53-1.62-80.51Zm-34.7,280.65l-3.45,27.7c-.32,3.13-3.02,5.5-6.14,5.5h-.43l-.22-.11-119.85-14.77c-3.45-.43-5.93-3.56-5.39-7.01l3.45-27.7c.32-3.13,3.02-5.5,6.14-5.5h.32l.22.11,119.74,14.77c1.72.32,3.23,1.19,4.2,2.37h0c1.08,1.29,1.62,3.02,1.4,4.63h0Z"/><path class="cls-2" d="m250.42,438.38c-1.08-8.51-8.3-14.98-16.92-14.98-.65,0-1.4,0-2.05.11l-.97.11c2.26-39.22,1.94-63.36-.97-71.98-5.17-15.19-23.28-42.35-35.24-52.69-17.56-15.09-79.42-38.47-82-39.44-2.26-.86-4.53-1.4-6.57-1.72l1.29-61.1c.22-14.76-10.34-26.94-23.6-27.48-2.37-12.18-12.07-21.01-23.38-21.23h-.43c-3.88,0-7.54.97-10.99,2.8-2.59-12.61-12.72-21.66-24.57-21.66-.43,0-.86,0-1.4.11h-1.29c-13.36,1.71-22.84,15.08-21.12,29.95l13.25,107.44c0,.43.11.86.22,1.08,0,.11.11.22.11.32v.11l32.87,73.06c.22.43.43.86.86,1.29l70.04,84.81,2.05,9.81-7.87.97c-4.53.54-8.51,2.91-11.31,6.47-2.8,3.66-3.99,8.08-3.45,12.5l3.45,27.69c1.08,8.51,8.3,14.98,16.92,14.98.65,0,1.4,0,2.05-.11l119.61-14.76c9.37-1.19,15.95-9.7,14.87-18.97l-3.45-27.48h0Zm-12.82,35.99l-119.5,14.76c-.22,0-.43,0-.65.11h-.11c-3.12,0-5.82-2.37-6.14-5.5l-3.45-27.69c-.22-1.62.32-3.34,1.29-4.63s2.48-2.16,4.09-2.37l119.5-14.76c.22,0,.43,0,.65-.11h.11c3.12.11,5.82,2.48,6.14,5.5l3.45,27.69c.43,3.45-1.94,6.57-5.39,7h0ZM23.91,139.89c7,0,13.36,6.36,14.33,14.55l.97,7.54,9.05,73.71c.11.54.22,1.29.65,1.94l30.6,54.96c0,.11.11.22.11.32v.11c3.12,5.71,8.3,10.24,14.66,12.61l50.11,26.83c.54.32,1.4.65,2.48.65,1.94,0,3.77-1.08,4.74-2.8,1.4-2.59.32-5.93-2.16-7.22l-50.22-26.83c-.22-.22-.54-.32-.86-.43-3.88-1.51-7.33-4.42-9.16-7.97-1.83-3.45-2.16-7.22-.86-10.67,1.83-4.74,6.47-7.87,12.18-8.3h.22c2.59-.22,5.28.22,7.97,1.19.65.22,62.82,23.6,78.77,37.39,10.24,8.84,27.16,34.37,31.79,47.84h0c2.48,7,2.59,31.79.32,69.83l-89.22,10.99-2.48-11.96c-.11-.75-.54-1.62-1.08-2.37l-70.47-85.34-32.33-71.77-13.25-106.79c-.65-4.74.65-9.48,3.34-12.93,2.16-2.8,5.17-4.53,8.51-4.96.43-.11.86-.11,1.29-.11h0Zm70.69,118.64c-3.66.97-7,2.59-9.81,4.96l-2.69-7.11,1.62-76.29c7.11.86,12.5,7.97,12.28,16.49l-1.4,61.96Zm-35.13-99.89h.22c7.44.22,13.36,7.33,13.47,16.06-.11.22-.11.43-.11.54l-1.72,80.5-12.61-22.52-8.62-70.26c2.59-2.69,5.93-4.31,9.37-4.31Z"/><path class="cls-3" d="m422.98,105.07c2.82-11.77,3.88-23.07,3.3-33.78,0-.24,0-.47-.12-.82v-.12l-.12-.24v-.12c0-.12-.12-.35-.12-.59,0-.12-.12-.24-.24-.35h0v-.12c0-.12-.12-.24-.24-.35h0v-.24l-.35-.35c-.12-.12-.24-.35-.35-.47l-.24-.24-.24-.24-.47-.47-.82-.47-.24-.24h-.35c-.12,0-.24-.12-.47-.12-10.12-2.71-20.01-4-29.66-4-6.36,0-12.71.59-19.54,1.65-1.65-12-5.06-22.71-10-31.78-1.06-1.88-2.94-3.06-5.06-3.06-8.83-.24-18.12.94-27.54,3.53-4.59-10.71-10.47-20.12-17.18-28.01-1.65-2-4.47-2.59-6.71-1.65-9.3,3.77-17.77,8.71-25.89,14.95-6.59-6.94-13.53-12.48-20.6-16.59-1.77-1.06-4.12-1.06-5.88,0-7.06,4.12-14,9.65-20.6,16.59-7.77-6.12-16.48-11.06-25.89-14.95-2.24-1.06-4.94-.35-6.83,1.65-6.83,7.89-12.59,17.42-17.18,28.13-9.77-2.71-18.95-3.88-27.42-3.53-2.12,0-4,1.18-5.06,3.06-4.83,9.18-8.24,19.77-10,31.78-6.83-1.18-13.3-1.65-19.65-1.65-10,0-20.01,1.29-29.66,4-.12,0-.24.12-.35.12-.35,0-.59.12-.82.35l-.71.35-.12.12c-.35.24-.47.35-.71.71l-.12.12c-.12.12-.35.35-.59.82h0l-.12.12c-.12.24-.24.35-.35.59,0,.12-.12.24-.12.24-.12.24-.24.71-.35,1.29,0,.12-.12.35-.12.59-.59,10.59.59,22.01,3.3,33.78,15.77,78.85,85.68,136.05,166.18,136.05s150.52-57.2,166.41-136.05h0ZM194.67,35.98c3.41-7.53,7.53-14.48,12.24-20.71,6.59,3.06,12.71,6.83,18.71,11.18-4.24,5.53-8.36,11.77-12,18.48-6.36-3.53-12.71-6.59-18.95-8.94h0Zm93.21-9.42c5.88-4.59,12-8.24,18.71-11.18,4.59,6,8.71,13.06,12.24,20.71-6.71,2.59-13.06,5.65-18.95,9.06-3.65-6.94-7.77-13.06-12-18.59h0Zm-127.1,131.46c10.83,17.65,24.24,29.42,41.43,36.6-18.36-2.94-36.37-10-52.84-20.83-29.66-19.54-50.84-60.37-50.49-97.56,7.41-1.77,15.06-2.59,22.48-2.59,6,0,12,.59,18.59,1.65-1.41,28.48,6.36,59.32,20.83,82.74h0Zm181.95-6.12c-14.83,24.01-35.07,36.01-65.32,38.84,27.19-20.24,40.37-45.55,40.37-77.32,0-18.83-4.35-38.6-12.59-57.55,16.24-9.53,33.42-14.95,48.61-15.3,14.48,30.72,9.89,77.44-11.06,111.33h0Zm-85.91,38.25c-34.48-20.71-49.19-43.78-49.19-76.85-.12-39.78,20.48-81.79,49.19-100.39,28.6,18.48,49.19,60.61,49.19,100.39,0,33.07-14.71,56.14-49.19,76.85Zm-61.08-76.73c0,31.78,13.18,57.08,40.37,77.32-30.25-2.82-50.49-14.95-65.32-38.84-20.95-33.78-25.54-80.38-10.95-111.33,14.83.12,32.01,5.53,48.49,15.18-8.24,18.95-12.59,38.72-12.59,57.67Zm25.66,94.62c11.77,0,23.66-1.65,35.42-4.83,11.77,3.18,23.66,4.83,35.42,4.83,23.77,0,47.78-6.59,69.79-19.07-29.07,26.13-66.02,40.37-105.21,40.37s-76.38-14.24-105.33-40.37c22.13,12.48,46.02,19.07,69.91,19.07h0Zm90.15-13.3c16.95-7.18,30.48-19.18,41.31-36.6,14.59-23.54,22.24-53.55,20.83-82.62,6.36-1.18,12.48-1.65,18.59-1.65,7.41,0,15.06.82,22.48,2.59.24,37.19-20.83,78.15-50.49,97.56-16.59,10.59-34.6,17.65-52.72,20.71h0Z"/></svg>