<?xml version="1.0" encoding="UTF-8"?><svg id="Layer_1" xmlns="http://www.w3.org/2000/svg" xmlns:xlink="http://www.w3.org/1999/xlink" viewBox="0 0 421.2 451.7"><defs><style>.cls-1{fill:url(#linear-gradient);}.cls-1,.cls-2{stroke-width:0px;}.cls-2{fill:url(#linear-gradient-2);}</style><linearGradient id="linear-gradient" x1="210.6" y1="462.2" x2="210.6" y2="10.5" gradientTransform="translate(0 452.4) scale(1 -1)" gradientUnits="userSpaceOnUse"><stop offset="0" stop-color="#466a44"/><stop offset="1" stop-color="#69e781"/></linearGradient><linearGradient id="linear-gradient-2" x1="106.2" y1="462.2" x2="106.2" y2="10.2" gradientTransform="translate(0 452.4) scale(1 -1)" gradientUnits="userSpaceOnUse"><stop offset="0" stop-color="#466a44"/><stop offset="1" stop-color="#69e781"/></linearGradient></defs><path class="cls-1" d="m405,312.6h-18v-137.8c2.1-2.4,3.3-5.5,3.4-9v-31.3c0-7.6-6.2-13.9-13.9-13.9h-24.3v-7.3h0c4.6-.8,8.9-2.9,12.3-6,9.6-9.1,11.2-27.1-13.3-53.4-1.9-2.3-5.4-2.4-7.5-.3-11.6,12.3-30.3,37.9-13.5,53.8,3.4,3.1,7.7,5.2,12.3,6v7.3h-24c-7.7,0-13.9,6.2-13.9,13.9v25.1c0,3.4,1.2,6.4,3.2,8.9v144.2h-29.3c8.9-6.2,14.6-14.1,18.2-20.9,6.6-12.5,7.6-24,7.6-24.5.1-2-.9-3.9-2.7-4.8-.5-.3-12.1-6-27.3-4.9h0v-.1c.4-15.4-4.3-26.9-4.5-27.4-.8-2-2.8-3.2-5-3-.8.1-16.6,1.9-30.7,14.7-6.7-10.8-12.9-18.4-13.5-19.2-.9-1.2-2.4-1.8-3.9-1.8-1.6,0-2.9.6-3.9,1.8-.6.7-6.8,8.4-13.6,19.2-6.2-5.7-12.8-9.3-18.3-11.5v-102.6c0-23.5-17.9-42.9-40.7-45.4v-11.2c0-5.2-4.3-9.5-9.5-9.5h-4.3v-.8c-.2-5.7-.4-11.6-4.8-16.6v-11.5c0-2.2,1.8-4.1,4.1-4.1h43.3c1.8,0,3.3-.9,4.3-2.5l10.8-18.8c.8-1.5.8-3.3,0-4.9-.8-1.6-2.5-2.5-4.3-2.5h-68.9c-11.5,0-20.7,9.3-20.7,20.7v23.5c-4.3,5-4.5,10.8-4.7,16.5v.8h-4.4c-5.2,0-9.5,4.3-9.5,9.5v11.1c-22.9,2.5-40.6,21.9-40.6,45.3v167.2c0,6.7,2.4,12.9,6.5,17.7h-21.2c-9,0-16.3,7.3-16.3,16.3v47.7c0,9,7.3,16.4,16.3,16.4h16v25.9c0,2.2-.3,4-1,5.8-.6,1.7-5.6,15.9-.5,23.2,1.8,2.5,4.6,4,7.8,4l39.7.1c3.2,0,6-1.3,8-4,4.2-6,1.4-17.3-.2-22.2l13.7-32.9h221.6l13.7,32.9c-1.6,4.9-4.5,16.1-.2,22.2,1.8,2.6,4.6,4,7.8,4h39.9c3.2,0,6-1.3,7.8-4,5.1-7.4.1-21.7-.5-23.2-.7-1.9-1-3.6-1-5.8v-26h15.9c9.1,0,16.4-7.4,16.4-16.4v-47.7c.2-8.6-7.1-16-16.2-16Zm-57.6-248.2c16.2,18.8,16.2,30.4,10.4,35.8-2.6,2.5-6.5,3.8-10.4,3.8s-7.8-1.2-10.4-3.8c-5.7-5.3-5.8-17.1,10.4-35.8Zm-32.9,70.2c0-2.2,1.8-4,4-4h58c2.2,0,4,1.8,4,4v31.4c0,1.1-.4,2-1.1,2.8-.2.2-.5.4-.7.6-.6.4-1.3.6-2.1.6-2.2,0-4-1.8-4-4v-9.7c0-5.6-4.3-10.4-9.8-11.2-.5-.1-.9-.1-1.5-.1-5,0-9.5,3.3-10.7,8.3-.4,1.4-1.7,2.3-3,2.3-1.5,0-2.6-.9-3-2.3-1.5-5.4-6.8-9-12.3-8.2-5.6.7-9.8,5.5-9.8,11.2v3.4c0,2.2-1.8,4-4,4-.8,0-1.5-.2-2.2-.6-.2-.2-.4-.4-.7-.5-.7-.7-1.1-1.7-1.1-2.8v-25.2h0Zm3.2,38.8h.8c7.6,0,13.8-6.3,13.8-13.9v-3.3c0-.7.4-1.2,1.2-1.3.6-.1,1.2.2,1.5.9,1.5,5.7,6.7,9.7,12.5,9.7s10.9-4.1,12.5-9.7c.2-.6.7-1,1.5-.9.6.1,1.2.6,1.2,1.3v9.7c0,7.6,6.2,13.9,13.8,13.9h.7v132.9h-59.5v-139.3Zm-23.6,96.5c-1.8,9.9-9.7,37.2-41.3,42.7h-8.4c1.2-1.3,2.3-2.7,3.2-4.2,16.7-12.9,23.4-28.1,25.8-40.9,8.9-1,16.5.9,20.7,2.4Zm-32-32.3c1.4,4.8,3.3,13.8,2.1,24.3v.1c-.1.4-.2.9-.2,1.3v.1c-1.2,8.5-4.5,17.9-11.7,26.8-.2-13.1-6.2-27.6-12.9-39.8,8.2-8.1,17.6-11.4,22.7-12.8Zm-45.2-3.8c3.5,4.6,7.7,10.7,11.6,17.5.2.7.5,1.3,1,1.8,8.4,14.8,15.5,32.5,12,44.9-.4,1.3-.9,2.6-1.5,3.8-.4.4-.6.9-.8,1.4h0c-2.5,4.1-6.6,7.2-12.4,9.3h-20c-8-3.1-12.8-7.9-14.7-14.6-5-18.6,13.7-49,24.8-64.1Zm-36.1,78.8h0c-31.6-5.5-39.5-32.8-41.3-42.7,4.1-1.4,11.8-3.4,20.8-2.4,2.4,12.8,9.1,28,25.8,40.9h0c.9,1.5,2,2.9,3.2,4.2h-8.5Zm-9.4-75.1c5.1,1.3,14.7,4.7,23,13-6.7,12.3-12.7,26.9-12.8,40-7.3-8.8-10.7-18-12-26.5.2-1.1,0-2.1-.4-3-1.1-10.1.8-18.8,2.2-23.5Zm-2.7-10.6c-2.1-.2-4.2,1-5,3-.2.5-4.9,12-4.5,27.4v.2c-11.6-.8-21.1,2.3-25.2,4H41v-118.4h130.2v84.2c-1.4-.3-2.3-.4-2.5-.4ZM100.5,21c0-6,4.8-10.9,10.8-10.9h60.3l-5.2,9h-40.5c-7.7,0-14,6.2-14,14v8.5h-11.6l.2-20.6Zm-4.8,40.3c.2-4.9.3-7.7,2-9.9h17c1.6,2.2,1.8,5,2,9.9v.5h-21.1c0-.2.1-.4.1-.5Zm-14,10.4h48.8v10.4h-48.8v-10.4Zm-5.7,20.2c.2.1.5.1.7.1h58.8c19.7,0,35.7,16,35.7,35.7v5.6H41.1v-5.7c0-19.4,15.6-35.2,34.9-35.7Zm-17.2,220.6c-9.8,0-17.7-8-17.7-17.7v-23.5h88.7c.8,4.5,2.8,12.2,7,20.4,3.6,6.8,9.3,14.7,18.2,20.9H59.8c-.3,0-.7-.1-1-.1Zm17.6,111.4c-.5,1.1-.5,2.4-.1,3.5,2.3,6.2,3,12.9,2.2,14.8h-39.5c-.8-1.8-.5-7.7,1.8-14,1-3,1.6-5.9,1.6-9.3v-25.9h46.9l-12.9,30.9Zm304.5,4.5c2.3,6.2,2.5,12.3,1.8,14h-39.5c-.7-1.9-.1-8.5,2.2-14.8.4-1.1.4-2.4-.1-3.5l-12.9-30.9h47v26c-.1,3.2.4,6.1,1.5,9.2Zm30.6-51.7c0,3.7-2.9,6.6-6.6,6.6h-79.1c-.5-.1-1.1-.1-1.6,0H98c-.8-.2-1.7-.2-2.5,0h-57c-.3-.1-.7-.1-1-.1s-.7,0-1,.1h-20c-3.7,0-6.6-2.9-6.6-6.6v-47.7c0-3.6,2.9-6.6,6.6-6.6h388.4c3.7,0,6.6,2.9,6.6,6.6v47.7h0Z"/><path class="cls-2" d="m139.5,202.4c4.8-3.1,8.7-7,11.3-11.1,3.4-5.5,4-11,1.5-15.4s-7.5-6.7-14.1-6.5c-4.9.2-10.2,1.7-15.4,4.3h0c-.6-14.2-7.6-24.7-16.6-24.7s-16,10.4-16.6,24.6h0c-12.5-6.6-25.1-5.8-29.6,2-4.6,7.8,1,19,12.9,26.7-11.9,7.6-17.5,18.8-12.9,26.7,2.5,4.3,7.4,6.5,13.4,6.5,4.9,0,10.5-1.4,16.1-4.4h0c.6,14.2,7.6,24.6,16.6,24.6s16.1-10.5,16.6-24.6h0c5.2,2.7,10.6,4.3,15.6,4.4h.7c6.1,0,10.8-2.3,13.4-6.4,4.6-7.9-1-19.1-12.9-26.7Zm-27.7,8.5c-1.6,1.1-3.6,1.8-5.7,1.8s-4.1-.7-5.7-1.8c-.2-.1-.3-.2-.5-.3h0c-2.5-1.9-4.1-4.9-4.1-8.2s1.5-6.1,3.8-8c.4-.2.8-.5,1.1-.8h0c1.6-.9,3.4-1.5,5.3-1.5,5.7,0,10.3,4.6,10.3,10.3,0,3.4-1.6,6.4-4.1,8.2-.1.1-.2.2-.4.3h0Zm26.7-31.7c2.6,0,4.7.5,5.3,1.6.6,1,.1,3.1-1.3,5.3-2,3.2-5.6,6.5-9.9,9-2.3,1.3-4.7,2.3-6.9,3-.8-3.5-2.5-6.7-4.9-9.3.3-.8.5-1.7.8-2.6,1.3-1,2.7-2,4.2-2.9,4.2-2.6,8.8-4,12.7-4.1Zm-32.3-20.4c2.4,0,6.8,6.5,6.8,16.9,0,2.6-.3,5.2-.8,7.5-1.9-.6-4-.9-6.1-.9s-4,.3-5.9.9c-.5-2.3-.8-4.8-.8-7.5,0-10.6,4.4-16.9,6.8-16.9Zm-37.8,21.7c1.3-2.1,9-2.7,18,2.5,1.5.9,3,2,4.4,3.1.2.8.4,1.6.7,2.4-2.4,2.6-4.2,5.8-5,9.4-.3-.1-.6-.2-.8-.3-.1,0-.2-.1-.3-.1-1.9-.7-3.9-1.5-5.8-2.6-9.1-5.3-12.5-12.3-11.2-14.4Zm.1,43.5c-1.3-2,2.1-9.1,11.1-14.3,1.4-.9,3-1.6,4.5-2.2.9.3,1.8.5,2.7.7h0c.9,2.9,2.5,5.6,4.5,7.8-.3.8-.5,1.7-.8,2.6h0c-1.3,1-2.6,2-4.1,2.8-9,5.3-16.8,4.7-17.9,2.6Zm37.6,21.8c-2.4,0-6.8-6.4-6.8-16.9,0-2.6.3-5.2.8-7.5,1.9.6,3.9.9,6,.9s4.1-.3,6-.9c.5,2.3.8,4.8.8,7.5,0,10.6-4.4,16.9-6.8,16.9Zm37.8-21.7c-.6,1-2.7,1.7-5.3,1.6-3.8-.1-8.4-1.6-12.7-4.1-1.5-.9-3-2-4.4-3.1-.2-.8-.4-1.6-.7-2.4,2-2.2,3.6-4.7,4.5-7.6h0c1-.2,2.1-.5,3.1-.8,1.5.6,2.9,1.3,4.4,2.2,9,5.1,12.3,12.1,11.1,14.2Z"/></svg>