<?xml version="1.0" encoding="UTF-8"?><svg id="Layer_1" xmlns="http://www.w3.org/2000/svg" xmlns:xlink="http://www.w3.org/1999/xlink" viewBox="0 0 508 508"><defs><style>.cls-1{fill:url(#linear-gradient);}.cls-1,.cls-2,.cls-3,.cls-4,.cls-5,.cls-6,.cls-7{stroke-width:0px;}.cls-2{fill:url(#linear-gradient-4);}.cls-3{fill:url(#linear-gradient-2);}.cls-4{fill:url(#linear-gradient-3);}.cls-5{fill:url(#linear-gradient-7);}.cls-6{fill:url(#linear-gradient-5);}.cls-7{fill:url(#linear-gradient-6);}</style><linearGradient id="linear-gradient" x1="361.5" y1="509" x2="361.5" y2="10.98" gradientTransform="translate(0 510) scale(1 -1)" gradientUnits="userSpaceOnUse"><stop offset="0" stop-color="#466a44"/><stop offset="1" stop-color="#69e781"/></linearGradient><linearGradient id="linear-gradient-2" x1="80.5" y1="509" x2="80.5" y2="10.98" gradientTransform="translate(0 510) scale(1 -1)" gradientUnits="userSpaceOnUse"><stop offset="0" stop-color="#466a44"/><stop offset="1" stop-color="#69e781"/></linearGradient><linearGradient id="linear-gradient-3" x1="80.5" y1="509" x2="80.5" y2="10.98" gradientTransform="translate(0 510) scale(1 -1)" gradientUnits="userSpaceOnUse"><stop offset="0" stop-color="#466a44"/><stop offset="1" stop-color="#69e781"/></linearGradient><linearGradient id="linear-gradient-4" x1="361.5" y1="509" x2="361.5" y2="10.98" gradientTransform="translate(0 510) scale(1 -1)" gradientUnits="userSpaceOnUse"><stop offset="0" stop-color="#466a44"/><stop offset="1" stop-color="#69e781"/></linearGradient><linearGradient id="linear-gradient-5" x1="361.5" y1="509" x2="361.5" y2="10.98" gradientTransform="translate(0 510) scale(1 -1)" gradientUnits="userSpaceOnUse"><stop offset="0" stop-color="#466a44"/><stop offset="1" stop-color="#69e781"/></linearGradient><linearGradient id="linear-gradient-6" x1="361.5" y1="509" x2="361.5" y2="10.98" gradientTransform="translate(0 510) scale(1 -1)" gradientUnits="userSpaceOnUse"><stop offset="0" stop-color="#466a44"/><stop offset="1" stop-color="#69e781"/></linearGradient><linearGradient id="linear-gradient-7" x1="155.5" y1="509" x2="155.5" y2="10.98" gradientTransform="translate(0 510) scale(1 -1)" gradientUnits="userSpaceOnUse"><stop offset="0" stop-color="#466a44"/><stop offset="1" stop-color="#69e781"/></linearGradient></defs><path class="cls-1" d="m502.5,58.4c-16.7,0-33.1,2.8-48.7,8.3-.9-16.1-4.4-32.4-10.9-48.1-1.2-2.8-4.4-4.1-7.2-3-15.5,6.4-29.5,15.2-41.8,26.3-7-14.6-16.5-28.2-28.5-40.3-1-1-2.4-1.6-3.9-1.6s-2.9.6-3.9,1.6c-12.1,12.1-21.6,25.7-28.5,40.3-12.3-11.1-26.3-19.9-41.8-26.3-2.8-1.2-6,.2-7.2,3-6.5,15.8-10.1,32-10.9,48.1-15.6-5.5-31.9-8.3-48.7-8.3-3,0-5.5,2.5-5.5,5.5,0,80.8,65.7,146.5,146.5,146.5h0c80.8,0,146.5-65.7,146.5-146.5,0-3-2.5-5.5-5.5-5.5Zm-67.7-30.4c21.7,59.1-.6,124.7-51.4,158.9,26.9-40,31.9-90.4,15.2-134.3,10.6-10.1,22.7-18.4,36.2-24.6Zm-73.3-14.6c11.1,12,19.5,25.6,25.5,39.9v.1c19.6,47.5,11.1,103.9-25.5,143.6-36.6-39.7-45.1-96.1-25.5-143.6v-.1c6-14.3,14.4-27.9,25.5-39.9Zm-73.3,14.6c13.4,6.2,25.6,14.5,36.2,24.6-16.8,43.9-11.7,94.3,15.2,134.3-50.7-34.2-73.1-99.8-51.4-158.9Zm-62.1,41.5c14.8.6,29.2,3.6,42.9,8.9,1.3,47,25.2,91.6,65.4,118.3-60-12.2-105.7-64.2-108.3-127.2Zm162.5,127.2c40.2-26.7,64.1-71.3,65.4-118.3,13.7-5.3,28.1-8.3,42.9-8.9-2.6,63-48.3,115-108.3,127.2Z"/><path class="cls-3" d="m131,427.5c0-27.8-22.7-50.5-50.5-50.5-7.6,0-14.9,1.7-21.8,4.9-2.7,1.3-3.9,4.6-2.6,7.3,1.3,2.7,4.6,3.9,7.3,2.6,5.3-2.6,11.1-3.8,17-3.8,21.8,0,39.5,17.7,39.5,39.5s-17.6,39.5-39.4,39.5-39.5-17.7-39.5-39.5c0-6,1.3-11.7,3.8-17,1.3-2.7.2-6-2.6-7.3-2.7-1.3-6-.2-7.3,2.6-3.3,6.8-4.9,14.2-4.9,21.8,0,27.8,22.7,50.5,50.5,50.5s50.5-22.8,50.5-50.6Z"/><path class="cls-4" d="m101,427.5c0-11.3-9.2-20.5-20.5-20.5s-20.5,9.2-20.5,20.5,9.2,20.5,20.5,20.5,20.5-9.2,20.5-20.5Zm-30,0c0-5.2,4.3-9.5,9.5-9.5s9.5,4.3,9.5,9.5-4.3,9.5-9.5,9.5-9.5-4.3-9.5-9.5Z"/><path class="cls-2" d="m361.5,229.4c-11.3,0-20.5,9.2-20.5,20.5s9.2,20.5,20.5,20.5,20.5-9.2,20.5-20.5-9.2-20.5-20.5-20.5Zm0,30c-5.2,0-9.5-4.3-9.5-9.5s4.3-9.5,9.5-9.5,9.5,4.3,9.5,9.5-4.3,9.5-9.5,9.5Z"/><path class="cls-6" d="m361.5,289.4c-11.3,0-20.5,9.2-20.5,20.5s9.2,20.5,20.5,20.5,20.5-9.2,20.5-20.5-9.2-20.5-20.5-20.5Zm0,30c-5.2,0-9.5-4.3-9.5-9.5s4.3-9.5,9.5-9.5,9.5,4.3,9.5,9.5-4.3,9.5-9.5,9.5Z"/><path class="cls-7" d="m361.5,349.4c-11.3,0-20.5,9.2-20.5,20.5s9.2,20.5,20.5,20.5,20.5-9.2,20.5-20.5-9.2-20.5-20.5-20.5Zm0,30c-5.2,0-9.5-4.3-9.5-9.5s4.3-9.5,9.5-9.5,9.5,4.3,9.5,9.5-4.3,9.5-9.5,9.5Z"/><path class="cls-5" d="m305.5,289.4c-3,0-5.5,2.5-5.5,5.5v147.6h0c0,13.5-11,24.5-24.5,24.5h-124.9c6.6-11.7,10.4-25.2,10.4-39.5v-206.5h114.5c13.5,0,24.5,11,24.5,24.5v19.4c0,3,2.5,5.5,5.5,5.5s5.5-2.5,5.5-5.5v-19.4c0-19.6-15.9-35.5-35.5-35.5h-114.7c-2.8-41.8-37.8-75-80.3-75S0,171.1,0,215.5v212c0,44.4,36.1,80.5,80.5,80.5h195c19.6,0,35.5-15.9,35.5-35.5v-177.6c0-3-2.5-5.5-5.5-5.5ZM11,215.5c0-38.3,31.2-69.5,69.5-69.5s69.5,31.2,69.5,69.5v171.5c-14-23.9-39.9-40-69.5-40s-55.5,16.1-69.5,40v-171.5Zm0,212c0-38.3,31.2-69.5,69.5-69.5s69.5,31.2,69.5,69.5-31.2,69.5-69.5,69.5-69.5-31.2-69.5-69.5Zm264.5,69.5H121c8.5-5,15.9-11.4,22.1-19h132.4c9.5,0,18.1-3.8,24.5-9.8v4.3c0,13.5-11,24.5-24.5,24.5Z"/></svg>