<svg id="logo_white" viewBox="0 0 64 64" xmlns="http://www.w3.org/2000/svg" xmlns:xlink="http://www.w3.org/1999/xlink" data-name="logo white" fill="white">
  <path d="m61.14 32.67c-.14-.31-.41-.55-.73-.67-.16-.06-3.51-1.2-7.94-1.32 3.31-8.34 1.73-17.07 1.66-17.47-.06-.34-.26-.63-.55-.82-.29-.18-.64-.24-.97-.16-.26.06-6 1.5-11.51 5.51-2.35-8.34-7.89-14.3-8.19-14.61-.47-.5-1.34-.5-1.81 0-.3.31-5.84 6.27-8.19 14.61-5.51-4.01-11.25-5.45-11.51-5.51-.33-.08-.69-.02-.97.16-.29.19-.49.48-.55.82-.07.39-1.65 9.12 1.66 17.47-4.43.13-7.78 1.27-7.94 1.32-.32.11-.59.35-.73.67-.14.31-.15.67-.02.99.15.38 3.86 9.29 11.95 12.97 3.88 1.75 7.76 2.74 11.03 2.84.03 0 11.7.02 11.84.02 3.25 0 7.31-.95 11.53-2.87 8.09-3.67 11.8-12.59 11.95-12.97.13-.32.12-.68-.02-.99zm-9.28-17.61c.32 2.95.65 10.08-2.43 16.33-.33.66-.72 1.35-1.15 2.04-3.79 5.88-8.17 9.72-11.51 11.16 3.22-3.68 5.37-11.01 5.37-19.65 0-1.55-.16-3.06-.42-4.52 3.83-3.01 8.04-4.67 10.14-5.35zm-19.86-9.15c2.2 2.7 7.64 10.27 7.64 19.02 0 11.6-4.03 19.68-7.64 19.68s-7.64-8.08-7.64-19.68c0-8.75 5.44-16.31 7.64-19.02zm-19.86 9.15c2.09.69 6.29 2.33 10.14 5.36-.26 1.45-.42 2.96-.42 4.52 0 8.64 2.15 15.98 5.37 19.65-3.34-1.44-7.71-5.27-11.5-11.15-.44-.69-.83-1.38-1.15-2.04-3.08-6.26-2.75-13.39-2.43-16.34zm-6.38 18.93c1.48-.36 4.03-.85 6.92-.8.28.53.59 1.06.93 1.6 3.99 6.19 8.73 10.54 12.81 12.2 0 0 0 0-.01 0h-.06c-2.99 0-6.83-.97-10.54-2.64-5.47-2.48-8.78-7.89-10.06-10.36zm42.41 10.36c-3.98 1.8-7.76 2.61-10.56 2.62 4.08-1.68 8.79-6.02 12.77-12.19.34-.54.64-1.07.92-1.59 2.89-.04 5.45.44 6.93.81-1.28 2.47-4.58 7.87-10.06 10.36zm10.24 6.58c0 6.7-13.61 10.32-26.42 10.32s-26.42-3.62-26.42-10.32c0-.69.56-1.25 1.25-1.25s1.25.56 1.25 1.25c0 3.7 9.82 7.82 23.92 7.82s23.92-4.12 23.92-7.82c0-.69.56-1.25 1.25-1.25s1.25.56 1.25 1.25zm-26.42 4.6c-9.94 0-17.53-2.15-20.64-4.29-.57-.39-.71-1.17-.32-1.74s1.17-.71 1.74-.33c1.94 1.33 8.46 3.85 19.23 3.85s17.29-2.52 19.23-3.85c.57-.39 1.35-.25 1.74.33.39.57.24 1.35-.32 1.74-3.11 2.13-10.71 4.29-20.64 4.29z" />
</svg>